<svg xmlns="http://www.w3.org/2000/svg" xmlns:xlink="http://www.w3.org/1999/xlink" id="Layer_1" x="0px" y="0px" viewBox="0 0 1197.6 517.3" style="enable-background:new 0 0 1197.6 517.3;" xml:space="preserve"><style type="text/css">	.st0{fill:#FFFFFF;}	.st1{fill:url(#SVGID_1_);}</style><g>	<g>		<path class="st0" d="M159.7,238.9c-0.9-0.9-2.1-1.4-3.4-1.4H116c-2.6,0-4.8,2.1-4.8,4.8V275c0,2.6,2.1,4.8,4.8,4.8h40.3   c1.3,0,2.5-0.5,3.4-1.4L176,262c1.9-1.9,1.9-4.9,0-6.7L159.7,238.9z"></path>		<path class="st0" d="M276.4,114h-32.7c-2.6,0-4.8,2.1-4.8,4.8v40.3c0,1.3,0.5,2.5,1.4,3.4l16.4,16.3c1.9,1.9,4.9,1.9,6.7,0   l16.3-16.3c0.9-0.9,1.4-2.1,1.4-3.4v-40.3C281.2,116.1,279.1,114,276.4,114z"></path>		<path class="st0" d="M255.9,330.5l-15.3,15.3c-1.1,1.1-1.7,2.6-1.7,4.1v38.8c0,3.2,2.6,5.8,5.8,5.8h30.7c3.2,0,5.8-2.6,5.8-5.8   v-38.9c0-1.5-0.6-3-1.7-4.1l-15.4-15.3C261.8,328.2,258.2,328.2,255.9,330.5z"></path>					<linearGradient id="SVGID_1_" gradientUnits="userSpaceOnUse" x1="275.2931" y1="1596.9084" x2="123.0193" y2="1142.4298" gradientTransform="matrix(1 0 0 -1 0 1637.5897)">			<stop offset="0" style="stop-color:#F62C84"></stop>			<stop offset="1" style="stop-color:#933DF5"></stop>		</linearGradient>		<path class="st1" d="M306.9,0h-96.5c-22.5,0-40.8,18.3-40.8,40.8v128.8H40.8C18.3,169.6,0,187.9,0,210.4v96.5   c0,22.5,18.3,40.8,40.8,40.8h128.8v128.8c0,22.5,18.3,40.8,40.8,40.8h96.5c22.5,0,40.8-18.3,40.8-40.8v-68.2v-60.6v-20.5l-8.5-8.5   l-57.9-57.9l57.9-57.9l4.4-4.4l4-4v-24.9v-58.2V40.8C347.7,18.3,329.4,0,306.9,0z M40.8,318.8c-6.6,0-11.9-5.3-11.9-11.9v-96.5   c0-6.6,5.3-11.9,11.9-11.9h137.3l62.4,62.4l-58,57.9H40.8z M318.8,339.3v137.3c0,6.6-5.3,11.9-11.9,11.9h-25.7v-34.3   c0-4.5-3.7-8.2-8.2-8.2h-25.8c-4.5,0-8.2,3.7-8.2,8.2v34.3h-28.5c-6.6,0-11.9-5.3-11.9-11.9V343.7l62.4-62.4L318.8,339.3z    M260.9,240.4l-38.1-38.1v-105h-24.3V40.8c0-6.6,5.3-11.9,11.9-11.9h96.5c6.6,0,11.9,5.3,11.9,11.9v56.5h-22v107.2L260.9,240.4z"></path>	</g>	<g>		<path class="st0" d="M433.7,66.3h-40.6V36.7h118.5v29.7h-40.4V169h-37.4L433.7,66.3L433.7,66.3z"></path>		<path class="st0" d="M607.6,143.2h-55.9l-10.4,25.7h-38.2l58.4-132.2h36.8L656.9,169H618L607.6,143.2z M596.6,115.6l-17-42.3   l-17,42.3H596.6z"></path>		<path class="st0" d="M667.5,36.7h37.4v102.6H768V169H667.5V36.7z"></path>		<path class="st0" d="M888.9,140v28.9H782.7V36.7h103.7v28.9h-66.7v22.3h58.8v28h-58.8v24.2L888.9,140L888.9,140z"></path>		<path class="st0" d="M1035.5,36.7V169h-30.8l-58.4-70.5V169h-36.7V36.7h30.9l58.4,70.5V36.7H1035.5z"></path>		<path class="st0" d="M1090.1,66.3h-40.6V36.7H1168v29.7h-40.5V169h-37.4V66.3z"></path>	</g>	<g>		<path class="st0" d="M405.6,203.6h62.5c14.5,0,27.3,2.7,38.5,8.1c11.2,5.4,19.9,13.1,26.1,23.1c6.2,10,9.3,21.6,9.3,35   s-3.1,25-9.3,35s-14.9,17.6-26.1,23.1c-11.2,5.4-24.1,8.1-38.5,8.1h-62.5L405.6,203.6L405.6,203.6z M466.6,306   c11.3,0,20.4-3.2,27.3-9.6s10.3-15.3,10.3-26.6c0-11.3-3.4-20.2-10.3-26.6c-6.9-6.4-16-9.6-27.3-9.6H443v72.6h23.6V306z"></path>		<path class="st0" d="M561.7,203.6h37.4v132.3h-37.4V203.6z"></path>		<path class="st0" d="M714.3,266.9h33.1v54.8c-7.6,5.4-16.2,9.6-26.1,12.5c-9.8,2.9-19.6,4.3-29.5,4.3c-13.9,0-26.3-2.9-37.4-8.8   c-11.1-5.9-19.8-14-26.1-24.5s-9.4-22.3-9.4-35.5s3.1-25.1,9.4-35.5c6.3-10.5,15-18.6,26.3-24.5c11.2-5.9,23.9-8.8,38-8.8   c12.3,0,23.4,2.1,33.3,6.2c9.8,4.2,18,10.1,24.6,17.9l-23.8,21.5c-8.9-9.8-19.6-14.7-32.1-14.7c-11.3,0-20.5,3.4-27.4,10.3   c-6.9,6.9-10.4,16-10.4,27.5c0,7.3,1.6,13.8,4.7,19.6c3.1,5.7,7.6,10.2,13.2,13.4c5.7,3.2,12.2,4.8,19.5,4.8   c7.2,0,13.9-1.4,20.2-4.3L714.3,266.9L714.3,266.9z"></path>		<path class="st0" d="M771.2,203.6h37.4v132.3h-37.4V203.6z"></path>		<path class="st0" d="M863.4,233.2h-40.6v-29.7h118.5v29.7h-40.4v102.6h-37.4L863.4,233.2L863.4,233.2z"></path>		<path class="st0" d="M1037.2,310.1h-55.9l-10.4,25.7h-38.2l58.4-132.3h36.8l58.6,132.3h-38.9L1037.2,310.1z M1026.3,282.5   l-17-42.3l-17,42.3H1026.3z"></path>		<path class="st0" d="M1097.1,203.6h37.4v102.6h63.1v29.7h-100.5V203.6z"></path>	</g>	<g>		<path class="st0" d="M496.8,479.5h-55.9l-10.4,25.7h-38.2l58.4-132.3h36.8l58.6,132.3h-38.9L496.8,479.5z M485.9,451.9l-17-42.3   l-17,42.3H485.9z"></path>		<path class="st0" d="M614.6,470.1h-20.4v35.1h-37.4V372.9h60.5c12,0,22.4,2,31.2,6s15.6,9.6,20.4,17c4.8,7.4,7.2,16,7.2,26   c0,9.6-2.2,17.9-6.7,25s-10.9,12.7-19.2,16.7l28.5,41.6h-40.1L614.6,470.1z M632.3,407.5c-3.9-3.4-9.7-5.1-17.4-5.1h-20.8v38.7   h20.8c7.7,0,13.5-1.7,17.4-5s5.9-8.1,5.9-14.3C638.2,415.7,636.2,410.9,632.3,407.5z"></path>		<path class="st0" d="M722.8,402.6h-40.6v-29.7h118.5v29.7h-40.4v102.6h-37.4L722.8,402.6L722.8,402.6z"></path>	</g></g></svg>